<svg width="108" height="108" viewBox="0 0 108 108" fill="none" xmlns="http://www.w3.org/2000/svg">
<g clip-path="url(#clip0_4333_6309)">
<path d="M108 0H0V108H108V0Z" fill="url(#paint0_linear_4333_6309)"/>
<rect width="97.0312" height="97.0312" transform="translate(7.17188 5.48438)" fill="url(#paint1_linear_4333_6309)"/>
<path d="M24.1389 67.543H17.6556L17.2764 68.5481H19.7393L17.4842 74.5252H19.0431L21.2983 68.5481H23.7605L24.1389 67.543Z" fill="white"/>
<path d="M28.4722 69.5327H26.948L26.8105 69.8974L26.6116 69.5327H23.5131L21.6299 74.525H24.802L25.1723 74.2395L25.0648 74.525H26.7475L27.6078 73.5296H26.9642L28.4722 69.5327ZM26.5728 70.5281L25.4408 73.5288H23.5293L24.6613 70.5281H26.5728Z" fill="white"/>
<path d="M30.2816 67.5518L27.6504 74.5251H29.1746L31.8049 67.5518H30.2816Z" fill="white"/>
<path d="M37.9469 69.5247H35.9496L33.7826 71.2511H33.012L34.4077 67.5518H32.8843L30.2539 74.5251H31.7773L32.6368 72.2465H33.4753L34.1141 74.5251H35.8575L35.0877 71.8025L37.9469 69.5247Z" fill="white"/>
<path d="M41.1869 70.5411L41.9356 68.556H46.378L46.7565 67.5518H40.7551L39.2487 71.5454H43.6652L42.9205 73.5208H38.208L38.2994 74.5251H44.1002L45.6026 70.5411H41.1869Z" fill="white"/>
<path d="M47.3331 73.5297L48.4628 70.5371H49.9611L50.3363 69.5417H48.8379L49.4161 68.0078H47.8927L47.3137 69.5417H46.1752L45.7992 70.5371H46.9386L45.4346 74.5251H48.2646L49.125 73.5297H47.3331Z" fill="white"/>
<path d="M50.695 69.5249L48.8086 74.5261H53.9432L55.8296 69.5249H50.695ZM50.7072 73.5299L51.8424 70.5203H53.9294L52.7942 73.5299H50.7072Z" fill="white"/>
<path d="M56.5713 73.5296L57.7033 70.5281H61.1479L61.5231 69.5327H56.5551L54.6719 74.525H59.3771L60.2382 73.5296H56.5713Z" fill="white"/>
<path d="M67.6762 69.5247H65.679L63.5119 71.2511H62.7413L64.137 67.5518H62.6136L59.9824 74.5251H61.5066L62.3662 72.2465H63.2047L63.8435 74.5251H65.586L64.817 71.8025L67.6762 69.5247Z" fill="white"/>
<path d="M39.3387 55.6388L44.065 40.5513H38.5795L32.7471 59.17H42.21L43.3429 55.6388H39.3387Z" fill="white"/>
<path d="M26.2525 40.5521L20.4209 59.1667L32.1002 59.2815L33.1991 55.6388H27.0126L30.6326 44.0824H36.6858L37.7596 40.5254L26.2525 40.5521Z" fill="white"/>
<path d="M78.3698 47.4819H65.332L68.1354 51.0195H74.6745L78.3698 47.4819Z" fill="white"/>
<path d="M56.5077 40.208L48.6143 65.6884L55.0951 60.9889L61.5437 40.208H56.5077Z" fill="white"/>
<path d="M43.5811 59.8827L46.9432 64.516L54.3928 40.208H49.4361L43.5811 59.8827Z" fill="white"/>
<path d="M39.052 33.3398L37.9531 36.9033H39.6657L40.7824 33.3398H39.052Z" fill="white"/>
<path d="M35.3203 36.9033H36.8882L37.9871 33.3398H36.4192L35.3203 36.9033Z" fill="white"/>
<path d="M35.3546 33.3398H9.46823L8.35156 36.9033H19.6686L8.67743 70.4543L13.1967 74.6703L25.2876 36.9033H34.2557L35.3546 33.3398Z" fill="white"/>
<path d="M77.2244 60.0701L70.8713 65.5476L68.2441 74.5229H89.4067L93.3574 60.0693H77.2244V60.0701ZM84.3457 70.5042H74.3984L76.4392 64.0476L86.3898 64.046L84.3457 70.5042Z" fill="white"/>
<path d="M40.2106 63.1823L19.3359 62.1699H40.699L43.977 65.9226L40.2106 63.1823Z" fill="white"/>
<path d="M97.2521 47.4821L99.4409 40.5848H74.3915L69.4461 44.1224H84.266L73.4317 54.6066H67.1109L61.6367 47.4926L72.3247 40.3867L63.0316 40.4401L60.6074 48.1767L58.8584 53.7609L63.9331 59.5342H67.1109L59.5368 65.4394H68.1297L92.4312 44.9334L91.5806 47.4328L90.4995 51.0197L89.361 54.6066H83.2965L78.9439 58.1442H93.8681L96.1297 51.0197H101.825L102.948 47.4821H97.2521Z" fill="white"/>
</g>
<defs>
<linearGradient id="paint0_linear_4333_6309" x1="9.36754" y1="10.7252" x2="87.3149" y2="101.299" gradientUnits="userSpaceOnUse">
<stop stop-color="#346AFF"/>
<stop offset="0.535" stop-color="#1735E9"/>
</linearGradient>
<linearGradient id="paint1_linear_4333_6309" x1="8.41615" y1="9.63595" x2="78.447" y2="91.011" gradientUnits="userSpaceOnUse">
<stop stop-color="#346AFF"/>
<stop offset="0.535" stop-color="#1735E9"/>
</linearGradient>
<clipPath id="clip0_4333_6309">
<rect width="108" height="108" rx="54" fill="white"/>
</clipPath>
</defs>
</svg>
